Coordinates
version=1
nRows=19
nColumns=18
inDegrees=yes

Units are S.I. units (second, meters, Newtons, ...)
If the header above contains a line with 'inDegrees', this indicates whether rotational values are in degrees (yes) or radians (no).

endheader
time	ground_thorax_rot_x	ground_thorax_rot_y	ground_thorax_rot_z	ground_thorax_tx	ground_thorax_ty	ground_thorax_tz	clav_prot	clav_elev	scapula_abduction	scapula_elevation	scapula_upward_rot	scapula_winging	plane_elv	shoulder_elv	axial_rot	elbow_flexion	pro_sup
      3.00000000	      0.51728761	     -2.93256185	     -4.92294318	     -0.04907993	      0.02151811	      0.02950808	    -21.85660990	    -11.57401878	    -19.77739611	    -10.40100392	     17.69674032	     17.33612157	    -26.00000000	     21.06577030	     37.30766290	     24.96816994	   -166.97105149
      3.02000000	      0.51728761	     -2.87421200	     -5.22148096	     -0.04867912	      0.02080916	      0.02973015	    -21.67590588	    -11.60873852	    -19.77645701	    -10.30432404	     17.23367347	     17.43912536	    -26.00000000	     20.62241415	     37.34176036	     24.96388746	   -167.00104953
      3.04000000	      0.51728761	     -2.61236857	     -5.39532845	     -0.04850347	      0.02040107	      0.02966383	    -21.59373588	    -11.77893219	    -20.01428413	    -10.27478318	     16.62354401	     17.65009245	    -26.00000000	     20.47311565	     38.72260427	     24.87593251	   -167.73573453
      3.06000000	      0.51728761	     -2.55811480	     -5.65884071	     -0.04819774	      0.01973293	      0.02991641	    -21.43921051	    -11.80691711	    -20.00963502	    -10.18930784	     16.22755457	     17.73667230	    -26.00000000	     20.09801410	     38.75358152	     24.87620794	   -167.76228090
      3.08000000	      0.51728761	     -2.32288551	     -5.85761252	     -0.04805212	      0.01934630	      0.02983660	    -21.35746003	    -12.00195780	    -20.18231796	    -10.19465158	     15.69132575	     17.94041179	    -26.00000000	     20.03881518	     40.00973754	     24.84509844	   -168.36046938
      3.10000000	      0.51728761	     -2.27659152	     -6.08396392	     -0.04784753	      0.01871420	      0.03006516	    -21.22979024	    -12.02285845	    -20.17697776	    -10.12110927	     15.36301018	     18.01057438	    -26.00000000	     19.73158198	     40.03764647	     24.84726942	   -168.38284351
      3.12000000	      0.51728761	     -2.01230220	     -6.29252990	     -0.04781000	      0.01832421	      0.02994608	    -21.25930369	    -12.18052058	    -20.40312229	    -10.15910443	     15.04693622	     18.16061227	    -26.00000000	     19.58480371	     41.45158409	     24.74996411	   -169.93281540
      3.14000000	      0.51728761	     -1.98211906	     -6.48263668	     -0.04774320	      0.01775783	      0.03010517	    -21.15604965	    -12.19610274	    -20.39935664	    -10.09741790	     14.77871769	     18.21714416	    -26.00000000	     19.34609129	     41.47487670	     24.75388777	   -169.94537571
      3.16000000	      0.51728761	     -1.83718535	     -6.72950757	     -0.04779890	      0.01719618	      0.02997105	    -21.04179943	    -12.24428207	    -20.35626376	    -10.06226636	     14.52349001	     18.28295217	    -26.00000000	     19.22854788	     41.63939213	     24.74246807	   -169.95530513
      3.18000000	      0.51728761	     -1.76303721	     -6.85652987	     -0.04789063	      0.01699917	      0.02999876	    -21.09188037	    -12.43905600	    -20.58949184	    -10.13422234	     14.23084651	     18.44706276	    -26.00000000	     19.15116031	     42.96988481	     24.66056208	   -170.21034531
      3.20000000	      0.51728761	     -1.76213053	     -7.00482491	     -0.04808277	      0.01655387	      0.03003199	    -21.02316782	    -12.44164888	    -20.59649378	    -10.08376119	     14.03979131	     18.48389909	    -26.00000000	     18.99675571	     42.98363960	     24.65562247	   -170.22147365
      3.22000000	      0.51728761	     -1.77015798	     -7.15030907	     -0.04834435	      0.01613858	      0.02999003	    -20.96442610	    -12.43878315	    -20.60882498	    -10.03480854	     13.86893168	     18.51493114	    -26.00000000	     18.87397153	     42.99934127	     24.64007886	   -170.23270764
      3.24000000	      0.51728761	     -1.78481502	     -7.26147419	     -0.04877679	      0.01603473	      0.02985856	    -20.91841073	    -12.56717068	    -20.63077292	    -10.07373782	     13.65951583	     18.61498601	    -26.00000000	     18.83759103	     43.27897533	     24.36020729	   -170.41983834
      3.26000000	      0.51728761	     -1.82643417	     -7.39481614	     -0.04919022	      0.01570072	      0.02972367	    -20.88082085	    -12.54595616	    -20.66018517	    -10.02179573	     13.52641591	     18.63192866	    -26.00000000	     18.75815126	     43.28614486	     24.33750352	   -170.43254063
      3.28000000	      0.51728761	     -1.96229271	     -7.41144911	     -0.04978944	      0.01561133	      0.02976542	    -20.87496319	    -12.54258346	    -20.74057021	     -9.98482573	     13.39404119	     18.66149790	    -26.00000000	     18.61505822	     43.23202003	     24.02495267	   -170.62772850
      3.30000000	      0.51728761	     -2.07829428	     -7.47622913	     -0.05048209	      0.01543598	      0.02955443	    -20.83307707	    -12.46857386	    -20.67827788	     -9.93124617	     13.40752407	     18.61913788	    -26.00000000	     18.46832909	     43.05016285	     23.67757757	   -172.82656650
      3.32000000	      0.51728761	     -2.22114142	     -7.48857324	     -0.05125339	      0.01526668	      0.02946152	    -20.79817728	    -12.34028504	    -20.69132156	     -9.81998421	     13.35229022	     18.57125821	    -26.00000000	     18.29910937	     42.50550797	     23.30025332	   -173.16914193
      3.34000000	      0.51728761	     -2.43598329	     -7.49014282	     -0.05196314	      0.01524687	      0.02949444	    -20.79983299	    -12.30306111	    -20.78790235	     -9.76084895	     13.23045265	     18.58503371	    -26.00000000	     18.22187950	     42.28909119	     22.99654569	   -173.29335640
      3.36000000	      0.51728761	     -2.55165956	     -7.42560766	     -0.05302774	      0.01522551	      0.02932558	    -20.75808541	    -12.13835296	    -20.77501286	     -9.63155883	     13.21142598	     18.51240260	    -26.00000000	     18.00787537	     41.33289020	     22.21359229	   -173.86024537
